<?xml version="1.0" encoding="utf-8"?>
<!-- Generator: Adobe Illustrator 26.5.0, SVG Export Plug-In . SVG Version: 6.00 Build 0)  -->
<svg version="1.1" id="Layer_1" xmlns="http://www.w3.org/2000/svg" xmlns:xlink="http://www.w3.org/1999/xlink" x="0px" y="0px"
	 viewBox="0 0 20 20" style="enable-background:new 0 0 20 20;" xml:space="preserve">
<style type="text/css">
	.st0{clip-path:url(#SVGID_00000091734380962465965700000006630791486205773218_);}
	.st1{fill:none;stroke:#1F4CEE;stroke-linecap:round;stroke-linejoin:round;}
</style>
<g>
	<defs>
		<rect id="SVGID_1_" width="20" height="20"/>
	</defs>
	<clipPath id="SVGID_00000068679432088655767400000013415677265385626786_">
		<use xlink:href="#SVGID_1_"  style="overflow:visible;"/>
	</clipPath>
	<g style="clip-path:url(#SVGID_00000068679432088655767400000013415677265385626786_);">
		<path class="st1" d="M10,12.5c1.4,0,2.5-1.1,2.5-2.5c0-1.4-1.1-2.5-2.5-2.5c-1.4,0-2.5,1.1-2.5,2.5C7.5,11.4,8.6,12.5,10,12.5z"/>
		<path class="st1" d="M16.2,12.5c-0.1,0.3-0.1,0.5-0.1,0.8s0.2,0.5,0.4,0.7l0,0.1c0.2,0.2,0.3,0.3,0.4,0.5c0.1,0.2,0.1,0.4,0.1,0.6
			c0,0.2,0,0.4-0.1,0.6c-0.1,0.2-0.2,0.4-0.4,0.5c-0.2,0.2-0.3,0.3-0.5,0.4c-0.2,0.1-0.4,0.1-0.6,0.1s-0.4,0-0.6-0.1
			c-0.2-0.1-0.4-0.2-0.5-0.4l0,0c-0.2-0.2-0.4-0.3-0.7-0.4c-0.3,0-0.5,0-0.8,0.1c-0.2,0.1-0.5,0.3-0.6,0.5c-0.1,0.2-0.2,0.5-0.2,0.8
			v0.1c0,0.4-0.2,0.9-0.5,1.2c-0.3,0.3-0.7,0.5-1.2,0.5c-0.4,0-0.9-0.2-1.2-0.5c-0.3-0.3-0.5-0.7-0.5-1.2v-0.1
			c0-0.3-0.1-0.5-0.3-0.8c-0.2-0.2-0.4-0.4-0.6-0.5C7.2,16.1,7,16,6.7,16.1S6.2,16.2,6,16.4l-0.1,0c-0.2,0.2-0.3,0.3-0.5,0.4
			C5.2,16.9,5,17,4.8,17c-0.2,0-0.4,0-0.6-0.1c-0.2-0.1-0.4-0.2-0.5-0.4c-0.2-0.2-0.3-0.3-0.4-0.5c-0.1-0.2-0.1-0.4-0.1-0.6
			s0-0.4,0.1-0.6c0.1-0.2,0.2-0.4,0.4-0.5l0,0c0.2-0.2,0.3-0.4,0.4-0.7c0-0.3,0-0.5-0.1-0.8c-0.1-0.2-0.3-0.5-0.5-0.6
			c-0.2-0.1-0.5-0.2-0.8-0.2H2.5c-0.4,0-0.9-0.2-1.2-0.5s-0.5-0.7-0.5-1.2c0-0.4,0.2-0.9,0.5-1.2s0.7-0.5,1.2-0.5h0.1
			c0.3,0,0.5-0.1,0.8-0.3C3.6,8,3.7,7.8,3.8,7.5C3.9,7.2,4,7,3.9,6.7c0-0.3-0.2-0.5-0.4-0.7l0-0.1C3.4,5.8,3.2,5.6,3.1,5.4
			C3.1,5.2,3,5,3,4.8c0-0.2,0-0.4,0.1-0.6c0.1-0.2,0.2-0.4,0.4-0.5C3.7,3.4,3.8,3.3,4,3.2c0.2-0.1,0.4-0.1,0.6-0.1
			c0.2,0,0.4,0,0.6,0.1c0.2,0.1,0.4,0.2,0.5,0.4l0.1,0C6.1,3.8,6.4,3.9,6.6,4c0.3,0,0.5,0,0.8-0.1h0.1C7.7,3.8,8,3.6,8.1,3.4
			c0.1-0.2,0.2-0.5,0.2-0.8V2.5c0-0.4,0.2-0.9,0.5-1.2S9.6,0.8,10,0.8c0.4,0,0.9,0.2,1.2,0.5c0.3,0.3,0.5,0.7,0.5,1.2v0.1
			c0,0.3,0.1,0.5,0.2,0.8c0.1,0.2,0.4,0.4,0.6,0.5C12.8,3.9,13,4,13.3,3.9c0.3,0,0.5-0.2,0.7-0.4l0.1,0c0.2-0.2,0.3-0.3,0.5-0.4
			C14.8,3.1,15,3,15.2,3c0.2,0,0.4,0,0.6,0.1c0.2,0.1,0.4,0.2,0.5,0.4c0.2,0.2,0.3,0.3,0.4,0.5c0.1,0.2,0.1,0.4,0.1,0.6
			c0,0.2,0,0.4-0.1,0.6c-0.1,0.2-0.2,0.4-0.4,0.5l0,0.1c-0.2,0.2-0.3,0.4-0.4,0.7s0,0.5,0.1,0.8v0.1c0.1,0.2,0.3,0.5,0.5,0.6
			c0.2,0.1,0.5,0.2,0.8,0.2h0.1c0.4,0,0.9,0.2,1.2,0.5c0.3,0.3,0.5,0.7,0.5,1.2c0,0.4-0.2,0.9-0.5,1.2c-0.3,0.3-0.7,0.5-1.2,0.5
			h-0.1c-0.3,0-0.5,0.1-0.8,0.2C16.4,12,16.3,12.3,16.2,12.5z"/>
	</g>
</g>
</svg>
